<?xml version="1.0" standalone="no"?>
<!DOCTYPE svg PUBLIC "-//W3C//DTD SVG 20010904//EN"
 "http://www.w3.org/TR/2001/REC-SVG-20010904/DTD/svg10.dtd">
<svg version="1.0" xmlns="http://www.w3.org/2000/svg"
 width="400.000000pt" height="400.000000pt" viewBox="0 0 400.000000 400.000000"
 preserveAspectRatio="xMidYMid meet">

<g transform="translate(0.000000,400.000000) scale(0.100000,-0.100000)"
fill="#fff" stroke="none">
<path d="M743 2598 c-63 -45 -62 -40 -69 -449 -3 -206 -2 -438 3 -517 l9 -143
35 -34 34 -35 973 -1 c934 0 974 0 1005 18 58 34 59 45 58 591 0 551 2 534
-71 573 -62 33 -127 21 -178 -34 -29 -31 -31 -48 -41 -452 -10 -419 6 -398
-301 -403 -218 -3 -244 3 -286 65 -21 31 -22 47 -29 387 -7 319 -9 358 -26
385 -21 34 -85 71 -124 71 -45 0 -99 -35 -124 -81 -25 -43 -25 -46 -30 -395
-7 -394 -3 -374 -83 -415 -32 -17 -60 -19 -215 -19 -215 0 -244 7 -281 62
l-27 41 -10 361 c-6 199 -15 369 -19 379 -5 10 -27 29 -51 42 -54 32 -109 33
-152 3z"/>
<path d="M3073 1757 c-66 -25 -132 -112 -133 -176 0 -71 56 -162 116 -187 49
-21 128 -18 175 6 58 30 99 99 99 166 0 66 -13 100 -53 143 -55 58 -129 75
-204 48z"/>
</g>
</svg>
