<?xml version="1.0" standalone="no"?>
<!DOCTYPE svg PUBLIC "-//W3C//DTD SVG 20010904//EN"
 "http://www.w3.org/TR/2001/REC-SVG-20010904/DTD/svg10.dtd">
<svg version="1.0" xmlns="http://www.w3.org/2000/svg"
 width="384.000000pt" height="433.000000pt" viewBox="0 0 384.000000 433.000000"
 preserveAspectRatio="xMidYMid meet">

<g transform="translate(0.000000,433.000000) scale(0.100000,-0.100000)"
fill="#101010" stroke="none">
<path d="M2185 4295 c-93 -20 -64 -6 -595 -290 -80 -43 -179 -95 -220 -118
-41 -22 -97 -52 -125 -67 -27 -15 -149 -80 -270 -145 -121 -64 -283 -151 -360
-193 -77 -41 -174 -93 -215 -115 -171 -91 -269 -185 -335 -322 -67 -141 -65
-104 -65 -1227 0 -998 1 -1014 21 -1058 36 -80 96 -125 183 -136 61 -9 93 4
321 126 110 59 297 159 415 222 118 64 260 139 315 168 55 29 123 65 150 80
101 55 163 89 280 150 66 35 134 71 150 80 17 10 66 37 110 60 44 23 107 57
140 75 33 17 168 89 300 160 132 70 263 143 292 161 117 75 219 209 264 349
22 66 23 88 27 413 l3 344 -108 -58 c-59 -33 -155 -84 -213 -114 l-105 -55 -5
-200 c-5 -218 -9 -232 -69 -291 -16 -16 -47 -38 -68 -49 -21 -11 -76 -41 -123
-66 -47 -25 -134 -72 -195 -104 -60 -32 -153 -81 -205 -110 -52 -29 -140 -76
-195 -105 -90 -48 -232 -124 -645 -345 -132 -71 -217 -116 -362 -194 -40 -21
-112 -60 -161 -86 l-87 -47 2 819 c3 764 4 820 21 851 31 56 70 84 243 176 93
49 203 108 244 131 41 23 125 68 185 100 177 93 368 196 400 215 17 9 82 44
145 78 63 33 171 90 240 127 369 198 351 190 410 189 115 -2 210 -89 210 -194
0 -22 3 -40 6 -40 3 0 31 14 62 31 115 64 298 156 320 162 29 7 26 20 -25 127
-52 108 -168 222 -283 279 -137 67 -285 87 -425 56z"/>
<path d="M3120 3709 c-47 -4 -111 -16 -143 -27 -53 -19 -171 -81 -482 -252
-27 -15 -90 -49 -140 -75 -155 -82 -256 -136 -390 -208 -71 -38 -157 -84 -190
-102 -409 -217 -626 -337 -671 -373 -67 -53 -133 -135 -173 -218 -61 -124 -64
-148 -69 -511 -2 -183 -1 -333 3 -333 4 0 51 23 104 51 53 29 130 70 171 92
41 22 94 51 118 64 l42 25 0 192 c0 182 1 195 23 237 27 51 78 87 247 176 146
77 393 209 445 238 22 12 83 45 135 73 100 52 512 272 615 327 358 193 362
195 417 195 88 0 163 -47 199 -125 17 -38 19 -79 19 -695 0 -616 -2 -657 -19
-695 -27 -58 -61 -85 -201 -160 -69 -37 -154 -83 -188 -102 -35 -19 -197 -106
-360 -193 -164 -86 -353 -188 -422 -225 -69 -37 -260 -139 -425 -227 -165 -88
-342 -183 -392 -210 l-93 -49 -2 190 -3 190 -218 -117 -218 -116 3 -270 c3
-243 5 -275 22 -310 45 -90 136 -143 229 -133 53 6 156 58 812 412 68 37 150
81 280 150 50 27 142 76 205 110 63 34 194 104 290 155 96 51 198 105 225 120
60 33 279 151 390 210 202 107 253 139 311 193 76 70 137 162 172 259 l27 73
3 724 c3 706 2 725 -18 800 -30 109 -91 210 -176 291 -84 79 -138 113 -234
146 -89 31 -172 41 -280 33z"/>
</g>
</svg>
